<svg width="22" height="24" xmlns="http://www.w3.org/2000/svg"><g stroke="#4688f2" fill="#4688f2" fill-rule="evenodd"><path d="M20.504 10.245C20.358 5.115 16.164 1 11 1s-9.358 4.116-9.503 9.245c.093 3.198 1.814 5.967 4.337 7.477v2.856a2.175 2.175 0 002.175 2.175h5.982a2.175 2.175 0 002.175-2.175v-2.856c2.523-1.51 4.245-4.279 4.338-7.477h0zm-5.97 10.333c0 .3-.243.543-.543.543H8.009a.544.544 0 01-.544-.543v-.544h7.07v.544zm0-3.722v1.546H7.466v-1.546c-2.528-1.183-4.29-3.689-4.343-6.611h.006C3.273 6.017 6.738 2.63 11 2.63c4.263 0 7.727 3.386 7.872 7.614h.006c-.053 2.922-1.814 5.428-4.343 6.611m-1.687-7.901L11 10.803 9.152 8.955c-.42-.421-1.062-.46-1.434-.089-.372.371-.332 1.014.088 1.434l2.323 2.323c.248.247.57.359.871.336.301.023.624-.09.872-.336l2.323-2.323c.42-.42.46-1.063.088-1.434-.373-.372-1.014-.332-1.435.089m7.655 1.537c-.145-5.13-4.339-9.245-9.503-9.245s-9.358 4.116-9.503 9.245c.093 3.198 1.814 5.967 4.337 7.478v2.855c0 1.201.974 2.175 2.175 2.175h5.982a2.175 2.175 0 002.175-2.175V17.97c2.523-1.51 4.244-4.28 4.337-7.478zm-5.968 10.333c0 .3-.244.544-.544.544H8.009a.544.544 0 01-.544-.544v-.544h7.07v.544zm0-3.721v1.545h-7.07v-1.545c-2.528-1.184-4.29-3.69-4.344-6.612h.007C3.273 6.264 6.737 2.88 11 2.88s7.727 3.386 7.872 7.613h.006c-.053 2.922-1.815 5.428-4.343 6.612m-1.687-8.15L11 10.804 9.152 8.955c-.42-.421-1.062-.46-1.434-.089-.372.371-.332 1.014.088 1.434l2.323 2.323c.248.247.57.359.871.336.301.023.624-.09.872-.336l2.323-2.323c.42-.42.46-1.063.088-1.434-.373-.372-1.014-.332-1.435.089" stroke-width=".1" fill-rule="nonzero"/><path d="M20.503 10.492c-.145-5.13-4.339-9.245-9.503-9.245s-9.358 4.116-9.503 9.245c.093 3.198 1.814 5.967 4.337 7.478v2.855c0 1.201.974 2.175 2.175 2.175h5.982a2.175 2.175 0 002.175-2.175V17.97c2.523-1.51 4.244-4.28 4.337-7.478z" stroke-width="2" opacity=".1" stroke-linejoin="round"/></g></svg>
